<svg id="Layer_1" enable-background="new 0 0 512.005 512.005" height="512" viewBox="0 0 512.005 512.005" width="512" xmlns="http://www.w3.org/2000/svg"><g><path d="m511.693 275.837-60.424-77.565h-36.332v-125.13h-115.757v-73.142h-86.355v73.142h-152.088l-60.425 77.565 60.424 77.565h36.332v125.13h115.756v158.602h86.355v-158.601h152.088zm-268.868-245.837h26.355v43.142h-26.355zm-167.43 168.272-37.054-47.565 37.054-47.565h309.542v95.13zm193.785 283.733h-26.355v-128.602h26.355zm167.43-253.733 37.054 47.565-37.054 47.565h-309.541v-95.13z"/><path d="m176.755 260.837h202.509v30h-202.509z"/><path d="m132.698 135.707h202.509v30h-202.509z"/></g></svg>